<svg xmlns="http://www.w3.org/2000/svg" width="256" height="256" viewBox="0 0 3520 3520"><path fill="currentColor" fill-rule="evenodd" d="M1986 204c-12 1-347 2-383 1-35-1-46 0-63 4l-26 5c-37 3-41 7-45 48-2 28-4 31-25 39-19 7-21 10-25 29-3 17-6 25-10 36-6 14-8 23-9 56l-3 41c-1 13-1 13 3 23 9 18 14 20 47 22l55 3a581 581 0 0 1 70 5 331 331 0 0 1 53 5c33 2 36 4 48 21 7 9 10 12 25 19l23 11c14 7 16 8 42 9l32 4 28 3 31 2 30 3c26 2 34 3 47 10l29 10c10 2 14 4 24 14 12 11 12 11 38 15l23 4 28 4 36 2c45 3 107 0 119-5q12-6 14-35l3-21q9-47-5-77c-5-10-6-16-9-29-4-27-7-31-29-38-19-7-22-12-24-45-3-29-5-36-21-51q-11-12-20-27c-23-36-24-36-26-58-3-39-5-41-24-46l-15-2c-12-1-18-3-28-7q-25-11-58-7m104 606a2154 2154 0 0 0-142 6c-20 1-23 2-34 12-9 8-11 9-25 16-12 5-17 8-23 13-14 12-18 13-44 15l-29 3-32 4c-20 1-22 1-36 4l-27 3c-23 1-27 2-40 8l-20 8c-20 5-24 8-37 26-8 11-11 12-34 14l-27 4-36 3-36 2c-14 2-28 3-85 5a606 606 0 0 0-72 6l-30 2-63 2c-57 2-55 2-71 11l-16 7-9 2a293 293 0 0 0-47 62c-7 18-13 26-24 34-22 16-25 21-28 53-3 36-4 39-24 48-19 9-23 15-27 33-2 12-4 16-9 28q-15 31-5 80l3 23q2 32 14 36l35 6 16 4 26 5c33 3 34 3 45 30 6 17 11 21 32 26l18 6c13 5 20 7 39 8s23 2 34 7l20 8c23 9 27 12 34 27 9 18 13 20 43 22l24 3 29 2 82 3a1295 1295 0 0 0 116-7c23-1 29-3 41-11l16-10q19-9 31-23c10-13 13-14 41-17l29-4c12-4 18-5 35-6 26-2 31-4 40-23 9-18 13-22 35-30l15-6c10-5 16-7 38-8l33-5 28-6c25-3 27-5 33-22 10-24 12-27 33-29l32-7 24-3 44-4 30-3a364 364 0 0 0 59-6c27-2 30-3 42-12 11-7 12-8 28-13 15-5 18-7 27-15s12-9 35-11l30-4c12-3 33-4 112-5l63-2q23-3 28-27c3-13 2-23-5-44-5-14-6-15-7-38-3-34-5-36-29-43q-16-5-19-9c-3-3-7-19-9-38q0-10-6-27l-6-25c-4-32-5-33-25-39-24-7-25-9-29-41-3-36-8-41-45-46-15-2-20-6-26-23-8-21-14-26-37-28l-21-4c-20-5-115-8-216-6m-659 988-46 8c-14 2-21 4-35 11-11 6-17 7-41 9q-15 1-26 4l-31 4c-24 1-29 2-40 7l-18 7c-20 5-25 10-34 30s-12 22-40 24c-19 2-23 3-31 6-9 4-14 5-29 8-25 4-27 6-32 25-8 27-10 29-43 32l-23 5c-12 4-18 5-33 6-18 0-27 2-37 4-12 4-17 5-33 6-17 1-20 2-28 7-18 11-22 12-61 13s-50 0-63-7c-10-5-20-7-47-8l-18-3c-16-3-35-2-42 1-8 5-11 9-17 30-5 22-11 28-32 36-18 8-23 13-27 33-2 12-4 15-9 30-5 12-5 12-7 33-3 34-4 35-30 43-21 5-22 8-26 41-1 18-2 20-8 35q-6 13-8 26c-5 26-7 29-30 38-12 5-16 12-18 30q-2 26 6 36 8 11 39 9l82-5 28-3c23-1 25-2 38-6l24-6c19-2 25-4 36-8 16-7 21-8 58-9 42-2 54-1 69 3l28 4c21 1 24 2 33 7 9 4 16 6 29 7q17 0 36 6c9 3 14 3 32 5l60 5q27 2 39 5l27 4c30 2 33 3 45 16q10 10 32 23l14 10c12 11 16 12 47 14l27 3 32 3 34 3a442 442 0 0 0 62 5 890 890 0 0 0 221-2 507 507 0 0 0 67-5l32-3 31-2 31-3c13-3 18-4 34-5 23-3 26-5 34-21 9-17 12-20 36-25l21-6c11-4 16-5 38-6l30-3 32-3 63-5c22-1 25-2 37-6l26-6c24-5 24-5 36-22 8-11 11-12 35-17l25-5c12-4 35-5 130-8l63-3a8139 8139 0 0 1 423 1 863 863 0 0 1 181 14c24 4 27 5 35 17 13 18 13 18 37 24l27 8c13 4 27 5 67 4 47 0 51-2 56-23v-17c-2-18-6-22-25-28-22-7-23-7-26-39-2-21-3-25-10-40l-6-23c-5-26-7-28-32-38-16-6-18-12-21-49-2-22-4-28-11-37l-6-7c-2 0-20-23-31-39-21-31-41-39-79-30l-32 3-29 3c-14 2-23 3-40 3l-64 5-30 2c-7 1-21 3-33 3-21 2-24 2-42 8l-17 2c-70 6-70 6-100 1l-52-5c-15-3-24-4-44-5l-27-3-28-2a4232 4232 0 0 1-196-12c-25-1-26-1-40-6l-24-6c-21-4-25-7-34-25-8-16-9-17-40-21-7 0-18-2-23-4l-22-3c-31-2-37-3-45-5l-20-4c-39-4-41-5-49-25s-13-24-35-29l-18-6c-12-5-16-6-39-7-19-2-27-3-38-8l-19-5c-24-5-28-8-34-26-7-22-10-24-40-28-9 0-20-2-25-3-14-4-16-4-38-5l-29-3-40-5q-18 0-30-6-15-6-32-8l-24-5c-17-6-34-9-43-7m-47 910-69 3a477 477 0 0 0-67 5c-22 1-27 2-38 5l-19 4c-27 3-31 5-37 21-10 25-10 26-38 29l-24 5c-13 3-16 4-40 5l-27 3c-5 1-19 3-31 3-26 2-28 3-43 10l-24 10c-18 7-21 8-31 21-8 11-13 12-49 14l-24 2-197-3c-35-3-42-4-52-13-9-7-12-8-25-12-15-5-22-8-29-13-11-9-16-10-40-12l-27-3-34-2-34-4c-21-5-51-4-61 1-17 9-22 36-10 63 8 20 9 23 10 40 4 34 5 36 27 42 25 6 27 8 30 40 2 24 3 29 11 44l4 14c5 19 12 29 28 38 18 9 21 15 24 50 3 34 6 39 25 49q19 10 26 36 5 14 17 27c10 10 27 23 32 24l12 3q9 1 16 6 17 12 48 9l199-1 201-1c34-3 189-3 540-3a95696 95696 0 0 0 1085 1c284 1 284 1 294 3 31 6 47 3 63-12 10-10 14-12 24-14 20-3 38-14 44-27l5-23c5-31 6-32 28-37 21-6 23-9 26-41 2-24 4-31 10-43l8-18q9-24 26-35c18-12 21-18 24-48 3-36 4-39 26-48 20-8 22-10 27-35 3-13 4-17 11-34 8-20 8-53-1-65-7-10-37-13-63-6l-43 5-26 3c-4 2-17 4-27 5-25 3-27 4-41 24-5 7-10 10-26 15l-27 8c-9 4-17 6-39 7l-26 2-33 2-65 3-70 4-65 3a4990 4990 0 0 1-505-11l-61-4c-22-1-31-2-43-7l-19-4c-23-4-27-6-38-20-8-10-13-13-34-17l-26-7c-11-3-15-4-42-5l-26-2-29-3a395 395 0 0 1-69-7c-23-2-26-4-38-16a85 85 0 0 0-30-22q-9-3-15-8c-14-9-18-11-40-12l-31-3a527 527 0 0 0-67-5l-32-2-44-2c-26-1-95-2-140-1"/></svg>